<?xml version="1.0" encoding="UTF-8" standalone="no"?>
<svg width="774px" height="216px" viewBox="0 0 774 216" version="1.1" xmlns="http://www.w3.org/2000/svg" xmlns:xlink="http://www.w3.org/1999/xlink" xmlns:sketch="http://www.bohemiancoding.com/sketch/ns">
    <!-- Generator: Sketch 3.3 (11970) - http://www.bohemiancoding.com/sketch -->
    <title>Logo Copy</title>
    <desc>Created with Sketch.</desc>
    <defs></defs>
    <g id="Page-1" stroke="none" stroke-width="1" fill="none" fill-rule="evenodd" sketch:type="MSPage">
        <g id="FB_banner" sketch:type="MSArtboardGroup" transform="translate(-655.000000, -264.000000)">
            <g id="Logo-Copy" sketch:type="MSLayerGroup" transform="translate(658.000000, 266.588785)">
                <path d="M283.826304,87.851045 C283.826304,74.6294594 291.381077,65.3828131 304.10658,65.3828131 C317.429561,65.3828131 322.996655,75.7221802 322.996655,86.4604238 C322.996655,87.5233964 322.996655,88.6668146 322.856294,89.8173557 C322.826964,90.0578548 322.61747,90.2367627 322.375295,90.2367627 L292.91583,90.2367627 C292.627985,90.2367627 292.399636,90.4898315 292.433155,90.7755813 C293.380068,98.7983636 298.133068,103.460443 306.692155,103.460443 C311.984812,103.460443 316.625104,101.596785 320.342785,99.5852231 C320.509542,99.4951407 320.709818,99.6149713 320.709818,99.8047728 L320.709818,105.86292 C320.709818,106.0368 320.619317,106.197273 320.468481,106.283165 C316.90834,108.315676 312.012046,110.120677 305.499296,110.120677 C291.282195,110.120677 283.826304,100.876125 283.826304,87.851045 L283.826304,87.851045 Z M292.690833,84.0747061 L314.703206,84.0747061 C314.886304,84.0747061 315.033368,83.9180046 315.018704,83.7353258 C314.54399,77.7777353 311.816798,71.745565 304.206718,71.745565 C297.059621,71.745565 293.287472,77.0478582 292.414301,83.7608841 C292.392933,83.9263843 292.524076,84.0747061 292.690833,84.0747061 Z M328.314031,102.665204 L333.472193,102.665204 C333.514092,102.665204 333.553476,102.646768 333.580711,102.615763 L346.876457,87.4500735 C346.924222,87.395605 346.924222,87.3143214 346.876876,87.2598529 L334.376369,72.8881453 C334.348716,72.8567212 334.309331,72.8382857 334.267432,72.8382857 L328.910251,72.8382857 C328.830225,72.8382857 328.7657,72.7737616 328.7657,72.6937348 L328.7657,66.6200847 C328.7657,66.540477 328.830225,66.4755338 328.910251,66.4755338 L350.194842,66.4755338 C350.27445,66.4755338 350.339393,66.540477 350.339393,66.6200847 L350.339393,72.4955535 C350.339393,72.5751612 350.27445,72.6401044 350.194842,72.6401044 L344.188649,72.6401044 C344.065466,72.6401044 343.998847,72.7838173 344.078036,72.8776706 L352.415478,82.7481901 C352.473718,82.8173231 352.579722,82.8164851 352.637123,82.7469331 L360.78225,72.8764136 C360.860182,72.7821413 360.793144,72.6401044 360.670799,72.6401044 L354.758878,72.6401044 C354.679271,72.6401044 354.614747,72.5751612 354.614747,72.4955535 L354.614747,66.6200847 C354.614747,66.540477 354.679271,66.4755338 354.758878,66.4755338 L375.050049,66.4755338 C375.129656,66.4755338 375.194599,66.540477 375.194599,66.6200847 L375.194599,72.6937348 C375.194599,72.7737616 375.129656,72.8382857 375.050049,72.8382857 L369.891049,72.8382857 C369.84915,72.8382857 369.809766,72.8563022 369.782112,72.8877263 L356.984543,87.5573344 C356.936778,87.6118028 356.936778,87.6930865 356.984543,87.747555 L369.981551,102.615763 C370.008785,102.646768 370.048589,102.665204 370.090488,102.665204 L375.34753,102.665204 C375.427138,102.665204 375.492081,102.729728 375.492081,102.809755 L375.492081,108.883405 C375.492081,108.963013 375.427138,109.027956 375.34753,109.027956 L354.659997,109.027956 C354.579971,109.027956 354.515446,108.963013 354.515446,108.883405 L354.515446,103.007936 C354.515446,102.927909 354.579971,102.863385 354.659997,102.863385 L360.363681,102.863385 C360.487282,102.863385 360.553483,102.718415 360.473037,102.624562 L351.44594,92.1574037 C351.387282,92.0899467 351.282116,92.0912036 351.225134,92.1599177 L342.580992,102.627076 C342.503479,102.721348 342.570517,102.863385 342.692443,102.863385 L348.505063,102.863385 C348.584671,102.863385 348.649614,102.927909 348.649614,103.007936 L348.649614,108.883405 C348.649614,108.963013 348.584671,109.027956 348.505063,109.027956 L328.314031,109.027956 C328.234424,109.027956 328.169899,108.963013 328.169899,108.883405 L328.169899,102.809755 C328.169899,102.729728 328.234424,102.665204 328.314031,102.665204 Z M379.840757,122.050941 L386.560906,122.050941 C386.709228,122.050941 386.829477,121.930692 386.829477,121.78237 L386.829477,73.5057336 C386.829477,73.3574119 386.709228,73.2371623 386.560906,73.2371623 L379.840757,73.2371623 C379.692436,73.2371623 379.572186,73.1169127 379.572186,72.968591 L379.572186,66.7441051 C379.572186,66.5957834 379.692436,66.4755338 379.840757,66.4755338 L394.514136,66.4755338 C394.662458,66.4755338 394.783127,66.5957834 394.783127,66.7441051 L394.783127,71.5465457 C394.783127,71.6533876 394.911756,71.7045042 394.98466,71.6261534 C398.148857,68.2419873 402.476585,65.3828131 408.899671,65.3828131 C420.531616,65.3828131 427.491426,74.8276408 427.491426,87.5535635 C427.491426,100.576549 420.134834,110.120677 407.805693,110.120677 C402.531053,110.120677 398.599689,108.29766 395.446385,105.688202 C395.379347,105.632896 395.279628,105.679404 395.279628,105.766553 L395.279628,121.78237 C395.279628,121.930692 395.399877,122.050941 395.548199,122.050941 L403.560507,122.050941 C403.708828,122.050941 403.829078,122.171191 403.829078,122.319512 L403.829078,128.543998 C403.829078,128.69232 403.708828,128.81257 403.560507,128.81257 L379.840757,128.81257 C379.692436,128.81257 379.572186,128.69232 379.572186,128.543998 L379.572186,122.319512 C379.572186,122.171191 379.692436,122.050941 379.840757,122.050941 Z M395.279628,77.4262044 L395.279628,99.1679111 C395.279628,99.2429099 395.310214,99.3145569 395.364263,99.3660924 C397.84132,101.711587 401.198671,103.460443 405.818433,103.460443 C414.567321,103.460443 418.841837,96.899091 418.841837,87.7517448 C418.841837,79.4017328 415.262842,72.0451414 406.614091,72.0451414 C401.689725,72.0451414 398.131679,74.4832326 395.359654,77.2334699 C395.308119,77.2845864 395.279628,77.3537195 395.279628,77.4262044 Z M434.255149,87.7517448 C434.255149,74.2305829 442.605161,65.3828131 455.927723,65.3828131 C469.250284,65.3828131 477.600715,74.2305829 477.600715,87.7517448 C477.600715,101.371788 469.250284,110.120677 455.927723,110.120677 C442.605161,110.120677 434.255149,101.371788 434.255149,87.7517448 Z M468.851827,87.7517448 C468.851827,78.5071934 464.378292,71.9437463 455.927723,71.9437463 C447.477572,71.9437463 443.003618,78.5071934 443.003618,87.7517448 C443.003618,96.9983912 447.477572,103.559743 455.927723,103.559743 C464.378292,103.559743 468.851827,96.9983912 468.851827,87.7517448 Z M484.399634,102.268422 L491.090034,102.268422 C491.219501,102.268422 491.323829,102.163675 491.323829,102.034627 L491.323829,73.4709576 C491.323829,73.3419093 491.219501,73.2371623 491.090034,73.2371623 L484.399634,73.2371623 C484.270585,73.2371623 484.165838,73.1324153 484.165838,73.003367 L484.165838,66.7093291 C484.165838,66.5802808 484.270585,66.4755338 484.399634,66.4755338 L499.441303,66.4755338 C499.570351,66.4755338 499.675098,66.5802808 499.675098,66.7093291 L499.675098,71.9295007 C499.675098,72.129777 499.908475,72.235362 500.060148,72.1042187 C504.466645,68.2918468 509.897568,65.3828131 516.078898,65.3828131 C523.735066,65.3828131 528.60622,69.9564862 528.60622,78.9039751 L528.60622,102.034627 C528.60622,102.163675 528.710967,102.268422 528.840016,102.268422 L535.629716,102.268422 C535.758764,102.268422 535.863511,102.373169 535.863511,102.502218 L535.863511,108.794161 C535.863511,108.923209 535.758764,109.027956 535.629716,109.027956 L513.131317,109.027956 C513.002269,109.027956 512.897522,108.923209 512.897522,108.794161 L512.897522,102.502218 C512.897522,102.373169 513.002269,102.268422 513.131317,102.268422 L519.921018,102.268422 C520.050485,102.268422 520.154813,102.163675 520.154813,102.034627 L520.154813,79.7980955 C520.154813,75.1251223 518.465035,72.2433227 513.49458,72.2433227 C508.462534,72.2433227 503.626574,75.2788909 499.958753,78.3375033 C499.904704,78.382335 499.874537,78.4485351 499.874537,78.5180871 L499.874537,102.034627 C499.874537,102.163675 499.979284,102.268422 500.108332,102.268422 L506.798732,102.268422 C506.9282,102.268422 507.032528,102.373169 507.032528,102.502218 L507.032528,108.794161 C507.032528,108.923209 506.9282,109.027956 506.798732,109.027956 L484.399634,109.027956 C484.270585,109.027956 484.165838,108.923209 484.165838,108.794161 L484.165838,102.502218 C484.165838,102.373169 484.270585,102.268422 484.399634,102.268422 Z M540.736761,87.851045 C540.736761,74.6294594 548.293629,65.3828131 561.019551,65.3828131 C574.341275,65.3828131 579.908369,75.7221802 579.908369,86.4604238 C579.908369,87.4928102 579.908369,88.6010335 579.778901,89.7180555 C579.744544,90.015537 579.485191,90.2367627 579.185614,90.2367627 L549.955754,90.2367627 C549.599195,90.2367627 549.316378,90.5484898 549.360372,90.9025346 C550.342061,98.8473852 555.090033,103.460443 563.603869,103.460443 C568.659379,103.460443 573.119506,101.76019 576.749199,99.8546324 C577.146819,99.6459764 577.621532,99.9350781 577.621532,100.384233 L577.621532,105.796301 C577.621532,106.011242 577.508824,106.210261 577.321956,106.316265 C573.766843,108.335369 568.888146,110.120677 562.410592,110.120677 C548.193491,110.120677 540.736761,100.876125 540.736761,87.851045 Z M549.97,84.0747061 L571.307802,84.0747061 C571.656819,84.0747061 571.936284,83.7768056 571.904022,83.4294646 C571.360594,77.5732692 568.598207,71.745565 561.118433,71.745565 C554.10164,71.745565 550.337033,76.8576377 549.376294,83.3976215 C549.32392,83.7554372 549.608413,84.0747061 549.97,84.0747061 Z M586.565669,102.268422 L592.742809,102.268422 C593.013476,102.268422 593.233025,102.048873 593.233025,101.777787 L593.233025,73.7277972 C593.233025,73.456712 593.013476,73.2371623 592.742809,73.2371623 L586.565669,73.2371623 C586.294584,73.2371623 586.075034,73.0171936 586.075034,72.7465273 L586.075034,66.9661688 C586.075034,66.6950836 586.294584,66.4755338 586.565669,66.4755338 L601.093659,66.4755338 C601.364745,66.4755338 601.584294,66.6950836 601.584294,66.9661688 L601.584294,71.8260107 C601.584294,72.0669288 601.865016,72.1934632 602.047695,72.0363427 C606.439946,68.2574898 611.843216,65.3828131 617.988094,65.3828131 C625.643005,65.3828131 630.515416,69.9564862 630.515416,78.9039751 L630.515416,101.777787 C630.515416,102.048873 630.734966,102.268422 631.006051,102.268422 L637.282073,102.268422 C637.553158,102.268422 637.772707,102.487972 637.772707,102.759057 L637.772707,108.537321 C637.772707,108.808406 637.553158,109.027956 637.282073,109.027956 L615.297353,109.027956 C615.026268,109.027956 614.806718,108.808406 614.806718,108.537321 L614.806718,102.759057 C614.806718,102.487972 615.026268,102.268422 615.297353,102.268422 L621.574631,102.268422 C621.845297,102.268422 622.065266,102.048873 622.065266,101.777787 L622.065266,79.7980955 C622.065266,75.1251223 620.37423,72.2433227 615.403776,72.2433227 C610.414048,72.2433227 605.617473,75.2281933 601.959289,78.2604095 C601.846581,78.3542628 601.782895,78.4929479 601.782895,78.6395937 L601.782895,101.777787 C601.782895,102.048873 602.002444,102.268422 602.27353,102.268422 L608.450251,102.268422 C608.720917,102.268422 608.940886,102.487972 608.940886,102.759057 L608.940886,108.537321 C608.940886,108.808406 608.720917,109.027956 608.450251,109.027956 L586.565669,109.027956 C586.294584,109.027956 586.075034,108.808406 586.075034,108.537321 L586.075034,102.759057 C586.075034,102.487972 586.294584,102.268422 586.565669,102.268422 Z M648.015288,97.5954491 L648.015288,73.8103379 C648.015288,73.5484704 647.802861,73.3360435 647.540994,73.3360435 L641.032853,73.3360435 C640.770986,73.3360435 640.558559,73.1240355 640.558559,72.862168 L640.558559,66.9498283 C640.558559,66.6879608 640.770986,66.4755338 641.032853,66.4755338 L647.540994,66.4755338 C647.802861,66.4755338 648.015288,66.2631069 648.015288,66.0012394 L648.015288,56.0150793 C648.015288,55.7532118 648.227715,55.5412038 648.489583,55.5412038 L655.991563,55.5412038 C656.25343,55.5412038 656.465438,55.7532118 656.465438,56.0150793 L656.465438,66.0012394 C656.465438,66.2631069 656.677865,66.4755338 656.939733,66.4755338 L668.617767,66.4755338 C668.879634,66.4755338 669.092061,66.6879608 669.092061,66.9498283 L669.092061,72.862168 C669.092061,73.1240355 668.879634,73.3360435 668.617767,73.3360435 L656.939733,73.3360435 C656.677865,73.3360435 656.465438,73.5484704 656.465438,73.8103379 L656.465438,97.0976913 C656.465438,101.968846 658.851575,103.460443 663.226229,103.460443 C665.512227,103.460443 667.564431,103.071203 669.177535,102.569675 C669.482139,102.474983 669.788419,102.703332 669.788419,103.022182 L669.788419,108.373916 C669.788419,108.585086 669.648896,108.771954 669.446106,108.830612 C666.873938,109.575154 664.262805,110.120677 660.740792,110.120677 C652.986581,110.120677 648.015288,106.84 648.015288,97.5954491 Z M674.919765,102.268422 L681.163105,102.268422 C681.415755,102.268422 681.620221,102.063537 681.620221,101.810887 L681.620221,73.6946972 C681.620221,73.4420474 681.415755,73.2371623 681.163105,73.2371623 L674.919765,73.2371623 C674.667115,73.2371623 674.46223,73.0322772 674.46223,72.7796274 L674.46223,66.9330687 C674.46223,66.680419 674.667115,66.4755338 674.919765,66.4755338 L689.712556,66.4755338 C689.965206,66.4755338 690.170091,66.680419 690.170091,66.9330687 L690.170091,101.810887 C690.170091,102.063537 690.374557,102.268422 690.627207,102.268422 L696.870547,102.268422 C697.123197,102.268422 697.328082,102.473307 697.328082,102.725957 L697.328082,108.570421 C697.328082,108.823071 697.123197,109.027956 696.870547,109.027956 L674.919765,109.027956 C674.667115,109.027956 674.46223,108.823071 674.46223,108.570421 L674.46223,102.725957 C674.46223,102.473307 674.667115,102.268422 674.919765,102.268422 Z M685.298517,45.5981994 C689.245384,45.5981994 692.378157,49.3933928 691.218818,53.4994753 C690.562682,55.8231827 688.541065,57.5644969 686.14613,57.8724531 C682.283479,58.3689539 679.035065,55.4129935 679.035065,51.76277 C679.035065,48.3827937 681.81966,45.5981994 685.298517,45.5981994 Z M701.802874,97.3951728 C701.802874,86.8572054 711.54644,84.2728874 721.289587,84.2728874 L729.293515,84.2728874 C729.484992,84.2728874 729.640018,84.1178618 729.640018,83.9263843 L729.640018,80.9922113 C729.640018,74.5301593 727.155,72.0451414 719.699108,72.0451414 C714.64318,72.0451414 709.313234,73.2338104 705.728372,74.3843515 C705.504214,74.4564174 705.282569,74.2896602 705.282569,74.0546079 L705.282569,68.2201999 C705.282569,68.0693642 705.374746,67.936126 705.518459,67.8896184 C709.684876,66.5325162 715.632411,65.3828131 721.388887,65.3828131 C732.424612,65.3828131 738.091425,69.6569098 738.091425,80.5937537 L738.091425,101.921919 C738.091425,102.113397 738.246451,102.268422 738.437509,102.268422 L744.804032,102.268422 C744.99509,102.268422 745.150116,102.423448 745.150116,102.614925 L745.150116,108.681453 C745.150116,108.872511 744.99509,109.027956 744.804032,109.027956 L730.28484,109.027956 C730.093363,109.027956 729.938337,108.872511 729.938337,108.681453 L729.938337,104.656654 C729.938337,104.353726 729.583036,104.199119 729.359296,104.403166 C726.261299,107.22505 721.587906,110.120677 715.423755,110.120677 C707.868144,110.120677 701.802874,105.74728 701.802874,97.3951728 Z M729.640018,98.1359436 L729.640018,90.1864841 C729.640018,89.9954256 729.484992,89.8404 729.293515,89.8404 L721.686369,89.8404 C715.523055,89.8404 710.353162,91.3319974 710.353162,97.0976913 C710.353162,100.975006 712.739299,103.85932 717.809892,103.85932 C722.717079,103.85932 726.655566,101.048329 729.528986,98.3923643 C729.601052,98.3257452 729.640018,98.2339868 729.640018,98.1359436 Z M748.417803,102.268422 L754.907928,102.268422 C755.119936,102.268422 755.291721,102.096637 755.291721,101.884629 L755.291721,45.8826923 C755.291721,45.6706844 755.119936,45.4988993 754.907928,45.4988993 L748.417803,45.4988993 C748.205795,45.4988993 748.034429,45.3271142 748.034429,45.1155252 L748.034429,39.1231588 C748.034429,38.9111508 748.205795,38.7393658 748.417803,38.7393658 L763.358078,38.7393658 C763.570086,38.7393658 763.741871,38.9111508 763.741871,39.1231588 L763.741871,101.884629 C763.741871,102.096637 763.913656,102.268422 764.125664,102.268422 L770.616626,102.268422 C770.828215,102.268422 771,102.440207 771,102.652215 L771,108.644163 C771,108.856171 770.828215,109.027956 770.616626,109.027956 L748.417803,109.027956 C748.205795,109.027956 748.034429,108.856171 748.034429,108.644163 L748.034429,102.652215 C748.034429,102.440207 748.205795,102.268422 748.417803,102.268422 Z M291.1477,196.807619 L291.1477,166.277639 C291.1477,166.112977 291.014043,165.978901 290.848962,165.978901 L282.837911,165.978901 C282.673249,165.978901 282.539173,165.845244 282.539173,165.680162 L282.539173,160.695881 C282.539173,160.5308 282.673249,160.397142 282.837911,160.397142 L290.848962,160.397142 C291.014043,160.397142 291.1477,160.263485 291.1477,160.098404 L291.1477,147.897892 C291.1477,147.73323 291.281357,147.599154 291.446439,147.599154 L297.597183,147.599154 C297.761845,147.599154 297.895921,147.73323 297.895921,147.897892 L297.895921,160.098404 C297.895921,160.263485 298.029578,160.397142 298.194659,160.397142 L313.53381,160.397142 C313.698892,160.397142 313.832549,160.5308 313.832549,160.695881 L313.832549,165.680162 C313.832549,165.845244 313.698892,165.978901 313.53381,165.978901 L298.194659,165.978901 C298.029578,165.978901 297.895921,166.112977 297.895921,166.277639 L297.895921,196.458602 C297.895921,202.858644 300.687638,205.533882 306.853047,205.533882 C309.65859,205.533882 312.264277,205.032773 314.019837,204.402615 C314.213409,204.333063 314.415361,204.47929 314.415361,204.684594 L314.415361,209.27335 C314.415361,209.401561 314.331564,209.517201 314.210057,209.558262 C311.278398,210.556292 308.862513,211 305.22444,211 C299.757066,211 291.1477,209.256591 291.1477,196.807619 Z M318.247844,204.253036 L326.759586,204.253036 C326.946873,204.253036 327.098547,204.101362 327.098547,203.914075 L327.098547,133.281077 C327.098547,133.093789 326.946873,132.942115 326.759586,132.942115 L318.247844,132.942115 C318.060557,132.942115 317.908464,132.790442 317.908464,132.603154 L317.908464,127.812864 C317.908464,127.625576 318.060557,127.473903 318.247844,127.473903 L333.50655,127.473903 C333.693837,127.473903 333.845511,127.625576 333.845511,127.812864 L333.845511,167.620915 C333.845511,167.749963 333.998023,167.815744 334.092714,167.728176 C339.631316,162.617779 346.399649,159.116296 353.506104,159.116296 C362.34717,159.116296 367.931023,164.584509 367.931023,175.170241 L367.931023,203.914075 C367.931023,204.101362 368.082697,204.253036 368.269985,204.253036 L376.782983,204.253036 C376.970271,204.253036 377.121944,204.40471 377.121944,204.591997 L377.121944,209.382287 C377.121944,209.569575 376.970271,209.721249 376.782983,209.721249 L352.332938,209.721249 C352.14565,209.721249 351.993977,209.569575 351.993977,209.382287 L351.993977,204.591997 C351.993977,204.40471 352.14565,204.253036 352.332938,204.253036 L360.845098,204.253036 C361.032386,204.253036 361.184059,204.101362 361.184059,203.914075 L361.184059,175.984334 C361.184059,169.354687 358.741359,164.816209 351.761857,164.816209 C344.951626,164.816209 338.714152,169.053854 333.958219,173.323341 C333.885734,173.387866 333.845511,173.480043 333.845511,173.576829 L333.845511,203.914075 C333.845511,204.101362 333.997604,204.253036 334.184472,204.253036 L342.697471,204.253036 C342.884758,204.253036 343.036432,204.40471 343.036432,204.591997 L343.036432,209.382287 C343.036432,209.569575 342.884758,209.721249 342.697471,209.721249 L318.247844,209.721249 C318.060557,209.721249 317.908464,209.569575 317.908464,209.382287 L317.908464,204.591997 C317.908464,204.40471 318.060557,204.253036 318.247844,204.253036 Z M382.388205,204.253036 L391.062932,204.253036 C391.204969,204.253036 391.32061,204.137814 391.32061,203.995358 L391.32061,166.236578 C391.32061,166.094541 391.204969,165.978901 391.062932,165.978901 L382.388205,165.978901 C382.246168,165.978901 382.130527,165.863679 382.130527,165.721223 L382.130527,160.65482 C382.130527,160.512783 382.246168,160.397142 382.388205,160.397142 L397.809896,160.397142 C397.952352,160.397142 398.067574,160.512783 398.067574,160.65482 L398.067574,203.995358 C398.067574,204.137814 398.183214,204.253036 398.325251,204.253036 L407.000817,204.253036 C407.143273,204.253036 407.258495,204.368677 407.258495,204.511133 L407.258495,209.463571 C407.258495,209.606027 407.143273,209.721249 407.000817,209.721249 L382.388205,209.721249 C382.246168,209.721249 382.130527,209.606027 382.130527,209.463571 L382.130527,204.511133 C382.130527,204.368677 382.246168,204.253036 382.388205,204.253036 Z M393.880208,136.896105 C396.904463,136.896105 399.347582,139.340062 399.347582,142.248677 C399.347582,145.273351 396.904463,147.715213 393.880208,147.715213 C390.971593,147.715213 388.528474,145.273351 388.528474,142.248677 C388.528474,139.340062 390.971593,136.896105 393.880208,136.896105 Z M412.864973,204.253036 L421.783133,204.253036 C421.858132,204.253036 421.918885,204.192283 421.918885,204.117284 L421.918885,166.115072 C421.918885,166.039654 421.858132,165.978901 421.783133,165.978901 L412.864973,165.978901 C412.789555,165.978901 412.728802,165.918566 412.728802,165.843149 L412.728802,160.532895 C412.728802,160.457896 412.789555,160.397142 412.864973,160.397142 L428.414456,160.397142 C428.489455,160.397142 428.550208,160.457896 428.550208,160.532895 L428.550208,167.764628 C428.550208,167.883201 428.689731,167.943116 428.776881,167.862671 C434.431124,162.628673 441.208674,159.116296 448.326442,159.116296 C457.167508,159.116296 462.751361,164.584509 462.751361,175.170241 L462.751361,204.117284 C462.751361,204.192283 462.812115,204.253036 462.887113,204.253036 L471.80653,204.253036 C471.881529,204.253036 471.942282,204.313789 471.942282,204.388788 L471.942282,209.585496 C471.942282,209.660495 471.881529,209.721249 471.80653,209.721249 L446.950067,209.721249 C446.875068,209.721249 446.814314,209.660495 446.814314,209.585496 L446.814314,204.388788 C446.814314,204.313789 446.875068,204.253036 446.950067,204.253036 L455.868226,204.253036 C455.943225,204.253036 456.003978,204.192283 456.003978,204.117284 L456.003978,175.984334 C456.003978,169.354687 453.678176,164.816209 446.581776,164.816209 C439.739702,164.816209 433.475412,169.094077 428.710681,173.383676 C428.682189,173.409653 428.665849,173.446524 428.665849,173.48549 L428.665849,204.117284 C428.665849,204.192283 428.726602,204.253036 428.801601,204.253036 L437.721018,204.253036 C437.796017,204.253036 437.85677,204.313789 437.85677,204.388788 L437.85677,209.585496 C437.85677,209.660495 437.796017,209.721249 437.721018,209.721249 L412.864973,209.721249 C412.789555,209.721249 412.728802,209.660495 412.728802,209.585496 L412.728802,204.388788 C412.728802,204.313789 412.789555,204.253036 412.864973,204.253036 Z M475.664572,204.253036 L484.404661,204.253036 C484.528682,204.253036 484.629658,204.152479 484.629658,204.02804 L484.629658,133.167112 C484.629658,133.043091 484.528682,132.942115 484.404661,132.942115 L475.664572,132.942115 C475.540551,132.942115 475.439575,132.841139 475.439575,132.717119 L475.439575,127.698899 C475.439575,127.57446 475.540551,127.473903 475.664572,127.473903 L491.151625,127.473903 C491.276065,127.473903 491.376622,127.57446 491.376622,127.698899 L491.376622,204.02804 C491.376622,204.152479 491.477598,204.253036 491.601618,204.253036 L500.10917,204.253036 C500.233609,204.253036 500.334166,204.354012 500.334166,204.478033 L500.334166,209.496252 C500.334166,209.620691 500.233609,209.721249 500.10917,209.721249 L475.664572,209.721249 C475.540551,209.721249 475.439575,209.620691 475.439575,209.496252 L475.439575,204.478033 C475.439575,204.354012 475.540551,204.253036 475.664572,204.253036 Z M508.943532,201.228781 L495.914262,185.290477 L495.914262,184.94146 L514.270127,166.130155 C514.409231,165.987699 514.308254,165.747619 514.109235,165.747619 L505.910897,165.747619 C505.786457,165.747619 505.6859,165.646643 505.6859,165.522623 L505.6859,160.622139 C505.6859,160.498119 505.786457,160.397142 505.910897,160.397142 L529.308863,160.397142 C529.433303,160.397142 529.53386,160.498119 529.53386,160.622139 L529.53386,165.638263 C529.53386,165.762703 529.433303,165.86326 529.308863,165.86326 L522.184391,165.86326 C522.123219,165.86326 522.06456,165.88798 522.022243,165.932393 L503.848638,184.796071 C503.76903,184.878612 503.764421,185.008498 503.838163,185.096485 L514.294009,197.623808 C517.435162,201.577798 521.390409,205.416147 526.160168,205.416147 C526.998982,205.416147 527.932488,205.321875 528.874373,204.96364 C529.023951,204.906657 529.184843,205.010566 529.184843,205.17062 L529.184843,210.022501 C529.184843,210.120125 529.121156,210.207694 529.028141,210.237861 C527.692826,210.676541 526.444242,211 524.764938,211 C518.482632,211 513.596813,206.928275 508.943532,201.228781 Z M568.863426,196.807619 L568.863426,166.164093 C568.863426,166.06186 568.780885,165.978901 568.678652,165.978901 L560.439672,165.978901 C560.337858,165.978901 560.254898,165.89636 560.254898,165.794127 L560.254898,160.581916 C560.254898,160.479683 560.337858,160.397142 560.439672,160.397142 L568.678652,160.397142 C568.780885,160.397142 568.863426,160.314602 568.863426,160.212369 L568.863426,147.783927 C568.863426,147.682113 568.946386,147.599154 569.0482,147.599154 L575.426873,147.599154 C575.528687,147.599154 575.611647,147.682113 575.611647,147.783927 L575.611647,160.212369 C575.611647,160.314602 575.694187,160.397142 575.79642,160.397142 L591.36392,160.397142 C591.465734,160.397142 591.548694,160.479683 591.548694,160.581916 L591.548694,165.794127 C591.548694,165.89636 591.465734,165.978901 591.36392,165.978901 L575.79642,165.978901 C575.694187,165.978901 575.611647,166.06186 575.611647,166.164093 L575.611647,196.458602 C575.611647,202.858644 578.403364,205.533882 584.569191,205.533882 C587.453924,205.533882 590.127067,205.003863 591.882627,204.348984 C592.004134,204.303734 592.131087,204.391721 592.131087,204.521188 L592.131087,209.355053 C592.131087,209.434242 592.079132,209.505889 592.004134,209.531866 C589.03686,210.547912 586.610501,211 582.940166,211 C577.472791,211 568.863426,209.256591 568.863426,196.807619 Z M597.136737,196.576338 C597.136737,184.127366 609.584451,181.452128 619.472568,181.452128 L630.348659,181.452128 C630.445445,181.452128 630.523796,181.373777 630.523796,181.27741 L630.523796,176.800104 C630.523796,167.9582 627.150105,164.700568 618.076081,164.700568 C612.018772,164.700568 605.849173,166.159903 601.443095,167.866442 C601.328712,167.910854 601.208462,167.826219 601.208462,167.703455 L601.208462,162.610237 C601.208462,162.537752 601.251618,162.472809 601.319075,162.446413 C606.307546,160.492253 612.888172,159.116296 619.239192,159.116296 C631.571266,159.116296 637.27076,164.351132 637.27076,176.332932 L637.27076,204.077899 C637.27076,204.174685 637.349111,204.253036 637.445897,204.253036 L646.054424,204.253036 C646.150792,204.253036 646.229561,204.331387 646.229561,204.428173 L646.229561,209.546112 C646.229561,209.642898 646.150792,209.721249 646.054424,209.721249 L630.931052,209.721249 C630.834685,209.721249 630.756334,209.642898 630.756334,209.546112 L630.756334,203.454864 C630.756334,203.403328 630.697676,203.374837 630.65871,203.408775 C626.694665,206.88051 620.223814,211 612.608707,211 C604.232718,211 597.136737,206.231916 597.136737,196.576338 Z M630.523796,198.010115 L630.523796,186.513084 C630.523796,186.416298 630.445445,186.337947 630.348659,186.337947 L619.588209,186.337947 C612.142792,186.337947 604.000179,188.083451 604.000179,196.458602 C604.000179,202.275832 608.071067,205.649523 614.237732,205.649523 C620.835117,205.649523 626.626789,201.618021 630.466395,198.14042 C630.503685,198.106901 630.523796,198.059974 630.523796,198.010115 Z M651.168173,204.253036 L660.032702,204.253036 C660.122366,204.253036 660.19527,204.180132 660.19527,204.09005 L660.19527,166.141887 C660.19527,166.051805 660.122366,165.978901 660.032702,165.978901 L651.168173,165.978901 C651.07851,165.978901 651.005606,165.906416 651.005606,165.816333 L651.005606,160.560129 C651.005606,160.470046 651.07851,160.397142 651.168173,160.397142 L666.664025,160.397142 C666.754108,160.397142 666.827012,160.470046 666.827012,160.560129 L666.827012,167.703455 C666.827012,167.845073 666.994188,167.917558 667.098516,167.821191 C672.74396,162.610237 679.504332,159.116296 686.603246,159.116296 C695.443893,159.116296 701.027746,164.584509 701.027746,175.170241 L701.027746,204.09005 C701.027746,204.180132 701.10065,204.253036 701.190732,204.253036 L710.056099,204.253036 C710.146182,204.253036 710.218667,204.32594 710.218667,204.415603 L710.218667,209.558681 C710.218667,209.648345 710.146182,209.721249 710.056099,209.721249 L685.253685,209.721249 C685.164022,209.721249 685.091118,209.648345 685.091118,209.558681 L685.091118,204.415603 C685.091118,204.32594 685.164022,204.253036 685.253685,204.253036 L694.118215,204.253036 C694.208297,204.253036 694.280782,204.180132 694.280782,204.09005 L694.280782,175.984334 C694.280782,169.354687 691.95498,164.816209 684.85858,164.816209 C678.020695,164.816209 671.759758,169.089049 666.996702,173.375715 C666.961926,173.407139 666.942653,173.451133 666.942653,173.49764 L666.942653,204.09005 C666.942653,204.180132 667.015556,204.253036 667.10522,204.253036 L675.970587,204.253036 C676.06067,204.253036 676.133573,204.32594 676.133573,204.415603 L676.133573,209.558681 C676.133573,209.648345 676.06067,209.721249 675.970587,209.721249 L651.168173,209.721249 C651.07851,209.721249 651.005606,209.648345 651.005606,209.558681 L651.005606,204.415603 C651.005606,204.32594 651.07851,204.253036 651.168173,204.253036 Z M713.899895,204.253036 L722.722945,204.253036 C722.82434,204.253036 722.906462,204.170914 722.906462,204.069519 L722.906462,133.125213 C722.906462,133.024237 722.82434,132.942115 722.722945,132.942115 L713.899895,132.942115 C713.7985,132.942115 713.716379,132.859994 713.716379,132.758599 L713.716379,127.657001 C713.716379,127.556024 713.7985,127.473903 713.899895,127.473903 L729.469909,127.473903 C729.571304,127.473903 729.653425,127.556024 729.653425,127.657001 L729.653425,204.069519 C729.653425,204.170914 729.735547,204.253036 729.836942,204.253036 L738.427453,204.253036 C738.528848,204.253036 738.61097,204.335158 738.61097,204.436134 L738.61097,209.537732 C738.61097,209.639127 738.528848,209.721249 738.427453,209.721249 L713.899895,209.721249 C713.7985,209.721249 713.716379,209.639127 713.716379,209.537732 L713.716379,204.436134 C713.716379,204.335158 713.7985,204.253036 713.899895,204.253036 Z M747.220336,201.228781 L734.191066,185.290477 L734.191066,184.94146 L752.702375,165.97094 C752.783239,165.887561 752.724162,165.747619 752.608102,165.747619 L744.145802,165.747619 C744.044407,165.747619 743.962285,165.665498 743.962285,165.564522 L743.962285,160.580659 C743.962285,160.479264 744.044407,160.397142 744.145802,160.397142 L767.627147,160.397142 C767.728542,160.397142 767.810663,160.479264 767.810663,160.580659 L767.810663,165.680162 C767.810663,165.781138 767.728542,165.86326 767.627147,165.86326 L760.443178,165.86326 C760.393319,165.86326 760.345554,165.88379 760.311197,165.919404 L742.099464,184.823305 C742.034521,184.890343 742.03075,184.995928 742.090665,185.067994 L752.570813,197.623808 C755.711966,201.577798 759.667212,205.416147 764.436972,205.416147 C765.292964,205.416147 766.247,205.318523 767.208578,204.941433 C767.330084,204.893669 767.461646,204.978304 767.461646,205.108191 L767.461646,210.052668 C767.461646,210.132276 767.409273,210.203504 767.333855,210.228224 C765.987227,210.671932 764.732777,211 763.041742,211 C756.759436,211 751.873616,206.928275 747.220336,201.228781 L747.220336,201.228781 Z" id="Fill-1-Copy" fill="#FFFFFF" sketch:type="MSShapeGroup"></path>
                <g id="Logo" transform="translate(0.131483, 0.000000)" sketch:type="MSShapeGroup">
                    <g id="Imported-Layers" transform="translate(6.680872, 11.792745)" fill="#FFFFFF">
                        <path d="M230.839059,25.5776769 C228.551843,22.5713132 226.054768,19.7701433 223.340369,17.1934286 C222.657742,16.5456138 222.468712,15.536941 222.836946,14.6705674 L225.617761,8.1456418 C226.019792,7.20064987 225.736445,6.10864171 224.933561,5.46829568 C222.531591,3.55276086 220.025871,1.77598734 217.424654,0.149374765 C217.384569,0.12421691 217.342911,0.107707068 217.301647,0.0853008528 C214.702788,9.06272424 209.51293,20.0716444 202.019349,32.100244 C210.218351,38.2816076 216.363967,47.2790787 218.826458,58.0753364 C224.36608,82.3656386 209.170633,106.548627 184.88645,112.089645 C169.004838,115.713162 153.170386,110.465391 142.563519,99.6062382 C136.323192,104.896857 129.76061,110.048714 122.89739,114.98437 C124.103877,116.322454 125.357523,117.61258 126.658721,118.849246 C127.340563,119.497454 127.53981,120.50534 127.171183,121.371321 L124.394298,127.900177 C123.99266,128.844776 124.278366,129.936391 125.080856,130.57713 C127.49776,132.506423 130.021557,134.295383 132.641245,135.932609 C133.511724,136.476647 134.636075,136.383878 135.393371,135.690464 L140.630389,130.897893 C141.324021,130.26305 142.340299,130.115641 143.177766,130.542931 C146.481261,132.228901 149.92191,133.65543 153.468274,134.804829 C154.361153,135.094145 154.975007,135.91492 155.018629,136.852836 L155.349529,143.958358 C155.397474,144.983147 156.127261,145.842052 157.126641,146.071617 C160.120457,146.760314 163.166935,147.276443 166.251926,147.615681 C167.272134,147.727712 168.245184,147.156157 168.626779,146.203303 L171.26651,139.611552 C171.61588,138.738889 172.466316,138.165368 173.405961,138.186202 C177.081619,138.268358 180.802079,138.059234 184.539437,137.543105 C185.470436,137.414564 186.381393,137.888239 186.827832,138.71491 L190.206782,144.974106 C190.68859,145.866424 191.706834,146.345209 192.695603,146.119575 C192.738832,146.109747 192.782061,146.09992 192.825683,146.090093 C195.837971,145.402576 198.768122,144.543671 201.615353,143.543253 C202.583686,143.202443 203.210509,142.260595 203.14095,141.236199 L202.661106,134.168807 C202.597048,133.229712 203.115405,132.341325 203.973308,131.953737 C207.408848,130.400632 210.675794,128.586122 213.757641,126.543225 C214.540875,126.024345 215.566192,126.055006 216.327026,126.60612 L222.082401,130.773676 C222.913973,131.375892 224.041861,131.339335 224.844352,130.699775 C227.262041,128.773233 229.556331,126.713041 231.720934,124.534921 C232.44404,123.806916 232.602809,122.690143 232.096242,121.797825 L228.590749,115.625502 C228.126232,114.807872 228.167103,113.784262 228.769953,113.062546 C230.306554,111.224057 231.865555,109.309702 233.044532,107.328127 L233.044532,26.4063138 C232.258547,26.5784878 231.366062,26.2703041 230.839059,25.5776769" id="Fill-8"></path>
                        <path d="M106.985125,194.539012 L104.09663,189.453194 C103.707961,188.768429 103.796384,187.919351 104.300593,187.314776 C106.262019,184.965269 108.034022,182.466386 109.598918,179.8425 C110.001735,179.167562 110.772,178.803166 111.545803,178.941928 L117.306286,179.977724 C118.137465,180.127098 118.960784,179.698629 119.328625,178.937997 C120.431362,176.660032 121.404412,174.315634 122.241486,171.916597 C122.52051,171.117048 122.239914,170.228662 121.543531,169.746732 L116.73684,166.419212 C116.093511,165.973839 115.807413,165.175078 115.999586,164.416411 C116.749416,161.460363 117.266201,158.429235 117.538545,155.348577 C117.607711,154.563966 118.144539,153.900034 118.903408,153.688944 L124.539313,152.123261 C125.354379,151.89684 125.910463,151.151539 125.910463,150.305606 C125.910463,147.79611 125.765842,145.266959 125.471098,142.727195 C125.373636,141.887159 124.736595,141.210648 123.901486,141.078569 L118.127247,140.16699 C117.355803,140.045132 116.741949,139.456281 116.58711,138.690146 C116.498687,138.254207 116.405547,137.818269 116.30612,137.381937 C115.711523,134.776527 114.947938,132.254059 114.032266,129.820822 C113.757957,129.091638 113.951702,128.269683 114.537261,127.756306 L118.952139,123.885141 C119.588,123.327737 119.765633,122.415372 119.40015,121.653167 C118.89712,120.605579 118.365008,119.578037 117.811281,118.56622 C107.775826,125.475196 97.1351619,131.901456 85.9553122,137.619364 C86.9177507,139.581284 87.6770122,141.679999 88.1843655,143.902932 C91.7110798,159.36833 82.0363913,174.764937 66.5752817,178.292541 C51.4690443,181.73956 36.4343315,172.577383 32.4623567,157.730318 C23.0588329,160.027938 13.4104749,161.742996 3.54439905,162.786261 C3.56758561,162.889644 3.58802122,162.992634 3.61160076,163.096017 C4.20698435,165.707323 4.97292667,168.235688 5.89095707,170.673641 C6.16605179,171.404005 5.97230651,172.227925 5.38517576,172.742482 L0.973049346,176.611288 C0.337187536,177.168692 0.159947934,178.081057 0.526216912,178.843655 C1.63602764,181.15464 2.87356091,183.380324 4.22584799,185.51599 C4.67778932,186.230237 5.5451237,186.562006 6.35429518,186.318682 L11.9579748,184.63232 C12.7113413,184.405506 13.5189408,184.680277 13.9968197,185.305686 C15.8537091,187.73735 17.893733,190.005488 20.0905609,192.095162 C20.655684,192.632518 20.8384255,193.442286 20.5330704,194.159678 L18.5083732,198.904293 L91.1058714,198.904293 C91.3558147,198.904293 91.6112598,198.606329 91.858059,198.442803 C92.5064966,198.013547 93.3494654,198.011975 93.9794324,198.467961 L94.5925006,198.904293 L104.437355,198.904293 C105.199367,198.11811 105.948804,197.51039 106.676233,196.778454 C107.27201,196.178596 107.402876,195.274486 106.985125,194.539012" id="Fill-9"></path>
                        <path d="M227.535957,194.831865 C227.422382,194.401823 227.304091,193.971781 227.179513,193.542132 C226.434792,190.975637 225.525408,188.50152 224.46983,186.125675 C224.153864,185.414179 224.299271,184.582397 224.854176,184.035607 L229.036402,179.914043 C229.638467,179.320475 229.763045,178.399854 229.353547,177.660056 C228.119551,175.431228 226.764906,173.293989 225.302188,171.251879 C224.809375,170.563969 223.923963,170.282515 223.129332,170.57301 L217.639621,172.579742 C216.900009,172.850582 216.077083,172.622589 215.563835,172.024697 C213.551713,169.679906 211.362352,167.512793 209.024047,165.536329 C208.423947,165.028848 208.190903,164.208466 208.45578,163.468667 L210.427423,157.9646 C210.712736,157.168197 210.425065,156.283741 209.734184,155.795522 C207.667044,154.335187 205.51934,152.993565 203.301291,151.780092 C202.559321,151.374029 201.638539,151.504535 201.049051,152.111075 L196.971361,156.303789 C196.42235,156.868268 195.582526,157.020002 194.860991,156.703956 C192.054632,155.472793 189.146881,154.462548 186.165247,153.687372 C185.403235,153.489254 184.836933,152.850087 184.754797,152.066656 L184.142908,146.24615 C184.054485,145.404541 183.412335,144.732748 182.578012,144.592414 C180.096264,144.174951 177.580327,143.899787 175.041202,143.770853 C174.197055,143.728006 173.424824,144.244528 173.15641,145.046828 L171.295591,150.611824 C171.048792,151.35005 170.366164,151.845738 169.588825,151.874434 C166.555709,151.986465 163.4998,152.34064 160.445069,152.949539 C159.671267,153.104024 158.881745,152.773827 158.467138,152.102427 L155.397474,147.153012 C154.962824,146.449378 154.122999,146.149056 153.329155,146.379408 C153.324439,146.380587 153.320116,146.38216 153.3154,146.383339 C150.843084,147.101124 148.436398,147.918361 146.118529,148.891263 C145.339225,149.218708 144.863311,150.002139 144.969419,150.840996 L145.701564,156.628876 C145.800205,157.410735 145.393851,158.158395 144.696682,158.525542 C141.953988,159.96976 139.361416,161.6176 136.93233,163.446261 C136.309044,163.915219 135.464503,163.958459 134.80742,163.538638 L129.871434,160.384079 C129.157367,159.928092 128.230298,160.012607 127.600331,160.579445 C125.709251,162.281531 123.925065,164.086607 122.253668,165.983274 C121.695226,166.616544 121.618593,167.541488 122.078001,168.250232 L125.262812,173.167807 C125.689994,173.827807 125.652267,174.68003 125.185392,175.312907 C123.369767,177.774839 121.751031,180.37396 120.346476,183.085898 C119.985316,183.783242 119.238237,184.192451 118.45854,184.098502 L112.654827,183.400764 C111.815395,183.29974 111.016835,183.776953 110.694974,184.559205 C109.728998,186.903996 108.89664,189.306964 108.204188,191.75671 C107.973894,192.570803 108.30558,193.439142 109.027507,193.879011 L114.032266,196.929008 C114.697995,197.334285 115.029681,198.096097 114.883488,198.861446 C114.879951,198.8811 114.8772,198.904293 114.87327,198.904293 L137.035687,198.904293 C140.560436,187.50464 149.496692,178.243797 161.706182,174.699684 C180.833125,169.146481 200.82701,180.035901 206.713644,198.904293 L233.044532,198.904293 L233.044532,196.608245 L229.118145,196.216333 C228.340806,196.13968 227.735204,195.587387 227.535957,194.831865" id="Fill-10"></path>
                    </g>
                    <path d="M1.61991495,210.188485 C0.7250711,210.188485 0,209.462838 0,208.568162 L0,176.458483 C0,175.602723 0.666515223,174.898696 1.52088084,174.84445 C129.843925,166.714925 223.514858,42.7118565 225.729371,1.51193768 C225.775744,0.653425868 226.504745,-0.0097194711 227.364219,0.00010781609 L238.051649,0.122359269 C238.939026,0.132579647 239.653094,0.855081801 239.653094,1.74268238 L239.653094,208.568162 C239.653094,209.462838 238.92763,210.188485 238.032786,210.188485 L1.61991495,210.188485 Z" id="Imported-Layers" stroke="#FFFFFF" stroke-width="5"></path>
                </g>
            </g>
        </g>
    </g>
</svg>